<?xml version="1.0" encoding="utf-8"?>
<!-- Generator: Adobe Illustrator 25.2.3, SVG Export Plug-In . SVG Version: 6.00 Build 0)  -->
<svg version="1.1" id="Layer_1" focusable="false" xmlns="http://www.w3.org/2000/svg" xmlns:xlink="http://www.w3.org/1999/xlink"
	 x="0px" y="0px" viewBox="0 0 496 512" style="enable-background:new 0 0 496 512;" xml:space="preserve">
<style type="text/css">
	.st0{fill:#267F1C;}
</style>
<path class="st0" d="M248,8C111,8,0,119,0,256s111,248,248,248s248-111,248-248S385,8,248,8z M112,223.4c3.3-42.1,32.2-71.4,56-71.4
	s52.7,29.3,56,71.4c0.7,8.6-10.8,11.9-14.9,4.5l-9.5-17c-7.7-13.7-19.2-21.6-31.5-21.6s-23.8,7.9-31.5,21.6l-9.5,17
	C122.8,235.3,111.3,231.9,112,223.4z M362.8,346.2C334.3,380.4,292.5,400,248,400s-86.3-19.6-114.8-53.8
	c-13.5-16.3,11-36.7,24.6-20.5c22.4,26.9,55.2,42.2,90.2,42.2s67.8-15.4,90.2-42.2C351.8,309.5,376.3,330,362.8,346.2L362.8,346.2z
	 M369,227.9l-9.5-17c-7.7-13.7-19.2-21.6-31.5-21.6s-23.8,7.9-31.5,21.6l-9.5,17c-4.1,7.3-15.6,4-14.9-4.5
	c3.3-42.1,32.2-71.4,56-71.4s52.7,29.3,56,71.4C384.7,232,373.1,235.3,369,227.9L369,227.9z"/>
</svg>
